# xmcd
#
# Track frame offsets:
#	150
#	14407
#	30692
#	42979
#	55717
#
# Disc length: 1073 seconds
#
# Revision: 1
# Processed by: cddbd v1.5.2PL0 Copyright (c) Steve Scherf et al.
# Submitted via: audiograbber 1.83.01
#
DISCID=37042f05
DTITLE=Rocky Jackson - Blue Streak
DYEAR=1900
DGENRE=Blues
TTITLE0=Back to the Crossroads
TTITLE1=Black Cat Bone
TTITLE2=I Wish You Would
TTITLE3=Le Me Love You Baby
TTITLE4=Goin' Back to Texas
EXTD=
EXTT0=
EXTT1=
EXTT2=
EXTT3=
EXTT4=
PLAYORDER=
